<svg width="287" height="67" viewBox="0 0 287 67" fill="none" xmlns="http://www.w3.org/2000/svg">
<path d="M33.2536 66.3964C51.2882 66.3964 65.9081 51.6682 65.9081 33.5C65.9081 15.3318 51.2882 0.603607 33.2536 0.603607C15.219 0.603607 0.599121 15.3318 0.599121 33.5C0.599121 51.6682 15.219 66.3964 33.2536 66.3964Z" fill="white" stroke="white"/>
<path d="M23.5961 53.4679L18.0775 49.4465L25.9415 36.412L12.5588 30.8653L14.6284 24.4868L28.7008 27.9534L29.9425 12.9775H36.7028L37.9445 27.8147L52.155 24.4868L54.2245 30.8653L40.8418 36.412L48.5679 49.4465L43.1872 53.4679L33.3917 41.5426L23.5961 53.4679Z" fill="black"/>
<path d="M73.4937 51.0045V19.5205H84.1828C86.3559 19.5205 88.305 19.762 90.0306 20.2449C91.7562 20.6956 93.1301 21.4842 94.1529 22.611C95.1756 23.7377 95.6867 25.3151 95.6867 27.3432C95.6867 28.7275 95.3194 30.0957 94.5843 31.4477C93.8814 32.7676 92.8904 33.669 91.6124 34.1519V34.345C93.2104 34.7635 94.5363 35.5844 95.5909 36.8077C96.6771 37.9988 97.2206 39.6406 97.2206 41.7331C97.2206 43.89 96.6771 45.6445 95.5909 46.9966C94.5046 48.3486 93.0504 49.3627 91.2289 50.0387C89.4075 50.6826 87.3625 51.0045 85.0935 51.0045H73.4937ZM80.5398 32.1238H83.8472C85.5728 32.1238 86.8191 31.7858 87.586 31.1097C88.3847 30.4337 88.7843 29.5323 88.7843 28.4056C88.7843 27.1823 88.3847 26.3131 87.586 25.798C86.7873 25.283 85.5566 25.0254 83.8952 25.0254H80.5398V32.1238ZM80.5398 45.4996H84.5183C88.3847 45.4996 90.3182 44.0831 90.3182 41.2503C90.3182 39.866 89.8389 38.8841 88.8802 38.3047C87.9215 37.693 86.4674 37.3872 84.5183 37.3872H80.5398V45.4996ZM108.412 51.584C105.983 51.584 104.29 50.8596 103.331 49.411C102.404 47.9302 101.941 45.9825 101.941 43.5681V17.1544H108.987V43.8578C108.987 44.5983 109.115 45.1133 109.37 45.4031C109.658 45.6928 109.946 45.8376 110.233 45.8376C110.393 45.8376 110.521 45.8376 110.617 45.8376C110.744 45.8055 110.904 45.7732 111.096 45.7411L111.959 51.0045C111.575 51.1655 111.08 51.2942 110.473 51.3908C109.898 51.5196 109.21 51.584 108.412 51.584ZM125.865 51.584C123.852 51.584 121.951 51.1011 120.161 50.1353C118.404 49.1374 116.982 47.7048 115.895 45.8376C114.809 43.9383 114.266 41.6687 114.266 39.029C114.266 36.357 114.809 34.0875 115.895 32.2203C116.982 30.3532 118.404 28.9367 120.161 27.971C121.951 26.973 123.852 26.474 125.865 26.474C127.879 26.474 129.764 26.973 131.522 27.971C133.279 28.9367 134.701 30.3532 135.788 32.2203C136.874 34.0875 137.417 36.357 137.417 39.029C137.417 41.6687 136.874 43.9383 135.788 45.8376C134.701 47.7048 133.279 49.1374 131.522 50.1353C129.764 51.1011 127.879 51.584 125.865 51.584ZM125.865 45.8376C127.303 45.8376 128.39 45.226 129.125 44.0027C129.86 42.7472 130.227 41.0893 130.227 39.029C130.227 36.9365 129.86 35.2786 129.125 34.0553C128.39 32.832 127.303 32.2203 125.865 32.2203C124.396 32.2203 123.293 32.832 122.558 34.0553C121.855 35.2786 121.504 36.9365 121.504 39.029C121.504 41.0893 121.855 42.7472 122.558 44.0027C123.293 45.226 124.396 45.8376 125.865 45.8376ZM152.597 51.584C150.392 51.584 148.395 51.1011 146.606 50.1353C144.848 49.1374 143.442 47.7048 142.387 45.8376C141.365 43.9383 140.854 41.6687 140.854 39.029C140.854 36.357 141.429 34.0875 142.579 32.2203C143.73 30.3532 145.247 28.9367 147.133 27.971C149.018 26.973 151.047 26.474 153.22 26.474C154.69 26.474 155.984 26.7155 157.103 27.1984C158.253 27.6812 159.276 28.2929 160.171 29.0333L156.863 33.6207C155.745 32.6871 154.675 32.2203 153.652 32.2203C151.958 32.2203 150.6 32.832 149.577 34.0553C148.587 35.2786 148.091 36.9365 148.091 39.029C148.091 41.0893 148.587 42.7472 149.577 44.0027C150.6 45.226 151.878 45.8376 153.412 45.8376C154.179 45.8376 154.93 45.6767 155.665 45.3548C156.4 45.0006 157.071 44.5821 157.678 44.0993L160.458 48.7349C159.276 49.7651 157.997 50.5055 156.624 50.9562C155.25 51.3747 153.908 51.584 152.597 51.584ZM164.619 51.0045V17.1544H171.473V36.5663H171.665L179.191 27.0535H186.86L178.519 36.9043L187.483 51.0045H179.862L174.493 41.6849L171.473 45.1133V51.0045H164.619ZM195.385 51.0045L188.914 27.5364H192.94L196.391 41.1054C196.647 42.1999 196.887 43.2945 197.11 44.389C197.334 45.4513 197.558 46.5298 197.781 47.6243H197.973C198.229 46.5298 198.484 45.4513 198.74 44.389C198.996 43.2945 199.267 42.1999 199.555 41.1054L203.15 27.5364H206.985L210.628 41.1054C210.915 42.1999 211.187 43.2945 211.442 44.389C211.73 45.4513 212.001 46.5298 212.257 47.6243H212.449C212.705 46.5298 212.945 45.4513 213.168 44.389C213.424 43.2945 213.663 42.1999 213.887 41.1054L217.29 27.5364H221.029L214.798 51.0045H210.004L206.649 38.4012C206.361 37.2745 206.09 36.1639 205.834 35.0694C205.611 33.9748 205.355 32.832 205.067 31.6409H204.876C204.62 32.832 204.364 33.9909 204.109 35.1176C203.853 36.2122 203.565 37.3228 203.246 38.4495L199.986 51.0045H195.385ZM234.971 51.584C233.086 51.584 231.312 51.1011 229.65 50.1353C228.021 49.1695 226.695 47.7692 225.672 45.9342C224.682 44.0993 224.186 41.8941 224.186 39.3187C224.186 36.679 224.682 34.4416 225.672 32.6067C226.695 30.7717 228.021 29.3713 229.65 28.4056C231.312 27.4398 233.086 26.9569 234.971 26.9569C236.888 26.9569 238.662 27.4398 240.292 28.4056C241.921 29.3713 243.232 30.7717 244.222 32.6067C245.245 34.4416 245.756 36.679 245.756 39.3187C245.756 41.8941 245.245 44.0993 244.222 45.9342C243.232 47.7692 241.921 49.1695 240.292 50.1353C238.662 51.1011 236.888 51.584 234.971 51.584ZM234.971 48.3003C236.984 48.3003 238.598 47.4795 239.812 45.8376C241.059 44.1637 241.682 41.9907 241.682 39.3187C241.682 36.6146 241.059 34.4255 239.812 32.7515C238.598 31.0775 236.984 30.2405 234.971 30.2405C232.99 30.2405 231.376 31.0775 230.13 32.7515C228.883 34.4255 228.26 36.6146 228.26 39.3187C228.26 41.9907 228.883 44.1637 230.13 45.8376C231.376 47.4795 232.99 48.3003 234.971 48.3003ZM251.891 51.0045V27.5364H255.151L255.486 31.7858H255.63C256.429 30.3049 257.404 29.1299 258.554 28.2607C259.705 27.3915 260.935 26.9569 262.245 26.9569C263.171 26.9569 264.002 27.1179 264.738 27.4398L263.971 30.9166C263.587 30.7878 263.235 30.6912 262.916 30.6268C262.596 30.5624 262.197 30.5303 261.718 30.5303C260.727 30.5303 259.688 30.9327 258.602 31.7375C257.548 32.5423 256.621 33.9426 255.822 35.9385V51.0045H251.891ZM275.998 51.584C273.09 51.584 270.757 50.5216 268.999 48.3969C267.242 46.2401 266.363 43.214 266.363 39.3187C266.363 36.7756 266.826 34.5865 267.753 32.7515C268.712 30.8844 269.958 29.4518 271.492 28.4539C273.058 27.4559 274.72 26.9569 276.477 26.9569C277.819 26.9569 278.986 27.1984 279.976 27.6812C280.967 28.1641 281.973 28.8241 282.996 29.6611L282.804 25.6531V16.6232H286.783V51.0045H283.523L283.188 48.2521H283.044C282.149 49.1534 281.095 49.9422 279.88 50.6182C278.666 51.2621 277.372 51.584 275.998 51.584ZM276.86 48.2521C278.905 48.2521 280.887 47.1736 282.804 45.0167V32.7515C281.814 31.8502 280.855 31.2224 279.928 30.8683C279.034 30.482 278.107 30.2888 277.148 30.2888C275.902 30.2888 274.768 30.6751 273.745 31.4477C272.754 32.1882 271.955 33.2344 271.348 34.5865C270.741 35.9064 270.437 37.4677 270.437 39.2704C270.437 42.0712 270.996 44.2763 272.115 45.8859C273.234 47.4633 274.815 48.2521 276.86 48.2521Z" fill="white"/>
</svg>
