<svg width="50" height="50" viewBox="0 0 50 50" fill="none" xmlns="http://www.w3.org/2000/svg">
<path fill-rule="evenodd" clip-rule="evenodd" d="M25 3.125C12.9199 3.125 3.125 13.1641 3.125 25.5566C3.125 35.4688 9.39453 43.8672 18.0859 46.8359C19.1797 47.041 19.5801 46.3477 19.5801 45.752C19.5801 45.2148 19.5605 43.8086 19.5508 41.9336C13.4668 43.291 12.1777 38.9258 12.1777 38.9258C11.1816 36.3379 9.74609 35.6445 9.74609 35.6445C7.76367 34.248 9.89258 34.2773 9.89258 34.2773C12.0898 34.4336 13.2422 36.5918 13.2422 36.5918C15.1953 40.0195 18.3594 39.0332 19.6094 38.457C19.8047 37.0117 20.3711 36.0156 20.9961 35.459C16.1426 34.8926 11.0352 32.9688 11.0352 24.375C11.0352 21.9238 11.8848 19.9219 13.2812 18.3594C13.0566 17.793 12.3047 15.5078 13.4961 12.4219C13.4961 12.4219 15.332 11.8164 19.5117 14.7168C21.2598 14.2188 23.125 13.9746 24.9902 13.9648C26.8457 13.9746 28.7207 14.2188 30.4688 14.7168C34.6484 11.8164 36.4746 12.4219 36.4746 12.4219C37.666 15.5078 36.9141 17.793 36.6895 18.3594C38.0859 19.9316 38.9355 21.9336 38.9355 24.375C38.9355 32.9883 33.8184 34.8828 28.9453 35.4395C29.7266 36.1328 30.4297 37.5 30.4297 39.5898C30.4297 42.5879 30.4004 45.0098 30.4004 45.7422C30.4004 46.3379 30.791 47.041 31.9043 46.8164C40.6152 43.8574 46.875 35.459 46.875 25.5566C46.875 13.1641 37.0801 3.125 25 3.125Z" fill="white"/>
</svg>
