<svg width="700" height="700" viewBox="0 0 700 700" fill="none" xmlns="http://www.w3.org/2000/svg">
<path d="M350 700C543.3 700 700 543.3 700 350C700 156.7 543.3 0 350 0C156.7 0 0 156.7 0 350C0 543.3 156.7 700 350 700Z" fill="black"/>
<path d="M88.995 289.529L86.259 287.591L89.3706 282.46L83.8986 280.103L84.9179 276.961L90.7654 278.27L91.3555 272.353H94.7353L95.3254 278.27L101.227 276.961L102.246 280.103L96.7202 282.46L99.8317 287.591L97.0957 289.529L93.0722 284.973L88.995 289.529ZM112.518 289.529L109.782 287.591L112.894 282.46L107.422 280.103L108.441 276.961L114.288 278.27L114.879 272.353H118.258L118.848 278.27L124.75 276.961L125.769 280.103L120.243 282.46L123.355 287.591L120.619 289.529L116.595 284.973L112.518 289.529ZM136.041 289.529L133.305 287.591L136.417 282.46L130.945 280.103L131.964 276.961L137.811 278.27L138.401 272.353H141.781L142.371 278.27L148.273 276.961L149.292 280.103L143.766 282.46L146.878 287.591L144.142 289.529L140.118 284.973L136.041 289.529ZM159.564 289.529L156.828 287.591L159.94 282.46L154.468 280.103L155.487 276.961L161.334 278.27L161.925 272.353H165.304L165.894 278.27L171.796 276.961L172.815 280.103L167.289 282.46L170.401 287.591L167.665 289.529L163.641 284.973L159.564 289.529ZM183.087 289.529L180.351 287.591L183.462 282.46L177.99 280.103L179.01 276.961L184.857 278.27L185.447 272.353H188.827L189.417 278.27L195.318 276.961L196.338 280.103L190.812 282.46L193.924 287.591L191.188 289.529L187.164 284.973L183.087 289.529Z" fill="white"/>
<path d="M214.5 255.5H65.5V304.5H214.5V255.5Z" stroke="white"/>
<path d="M298.995 134.529L296.259 132.591L299.371 127.46L293.899 125.103L294.918 121.961L300.765 123.27L301.356 117.353H304.735L305.325 123.27L311.227 121.961L312.246 125.103L306.72 127.46L309.832 132.591L307.096 134.529L303.072 129.973L298.995 134.529ZM322.518 134.529L319.782 132.591L322.894 127.46L317.422 125.103L318.441 121.961L324.288 123.27L324.879 117.353H328.258L328.848 123.27L334.75 121.961L335.769 125.103L330.243 127.46L333.355 132.591L330.619 134.529L326.595 129.973L322.518 134.529ZM346.041 134.529L343.305 132.591L346.417 127.46L340.945 125.103L341.964 121.961L347.811 123.27L348.401 117.353H351.781L352.371 123.27L358.273 121.961L359.292 125.103L353.766 127.46L356.878 132.591L354.142 134.529L350.118 129.973L346.041 134.529ZM369.564 134.529L366.828 132.591L369.94 127.46L364.468 125.103L365.487 121.961L371.334 123.27L371.925 117.353H375.304L375.894 123.27L381.796 121.961L382.815 125.103L377.289 127.46L380.401 132.591L377.665 134.529L373.641 129.973L369.564 134.529ZM393.087 134.529L390.351 132.591L393.462 127.46L387.99 125.103L389.01 121.961L394.857 123.27L395.447 117.353H398.827L399.417 123.27L405.318 121.961L406.338 125.103L400.812 127.46L403.924 132.591L401.188 134.529L397.164 129.973L393.087 134.529Z" fill="white"/>
<path d="M424.5 100.5H275.5V149.5H424.5V100.5Z" stroke="white"/>
<path d="M508.995 289.529L506.259 287.591L509.371 282.46L503.899 280.103L504.918 276.961L510.766 278.27L511.356 272.353H514.735L515.326 278.27L521.227 276.961L522.246 280.103L516.72 282.46L519.832 287.591L517.096 289.529L513.072 284.973L508.995 289.529ZM532.518 289.529L529.782 287.591L532.894 282.46L527.422 280.103L528.441 276.961L534.289 278.27L534.879 272.353H538.258L538.849 278.27L544.75 276.961L545.769 280.103L540.243 282.46L543.355 287.591L540.619 289.529L536.595 284.973L532.518 289.529ZM556.041 289.529L553.305 287.591L556.417 282.46L550.945 280.103L551.964 276.961L557.811 278.27L558.402 272.353H561.781L562.371 278.27L568.273 276.961L569.292 280.103L563.766 282.46L566.878 287.591L564.142 289.529L560.118 284.973L556.041 289.529ZM579.564 289.529L576.828 287.591L579.94 282.46L574.468 280.103L575.487 276.961L581.335 278.27L581.925 272.353H585.304L585.895 278.27L591.796 276.961L592.815 280.103L587.289 282.46L590.401 287.591L587.665 289.529L583.641 284.973L579.564 289.529ZM603.087 289.529L600.351 287.591L603.463 282.46L597.991 280.103L599.01 276.961L604.857 278.27L605.448 272.353H608.827L609.417 278.27L615.319 276.961L616.338 280.103L610.812 282.46L613.924 287.591L611.188 289.529L607.164 284.973L603.087 289.529Z" fill="white"/>
<path d="M634.5 255.5H485.5V304.5H634.5V255.5Z" stroke="white"/>
<path d="M430.995 540.529L428.259 538.591L431.371 533.46L425.899 531.103L426.918 527.961L432.766 529.27L433.356 523.353H436.735L437.326 529.27L443.227 527.961L444.246 531.103L438.72 533.46L441.832 538.591L439.096 540.529L435.072 535.973L430.995 540.529ZM454.518 540.529L451.782 538.591L454.894 533.46L449.422 531.103L450.441 527.961L456.289 529.27L456.879 523.353H460.258L460.849 529.27L466.75 527.961L467.769 531.103L462.243 533.46L465.355 538.591L462.619 540.529L458.595 535.973L454.518 540.529ZM478.041 540.529L475.305 538.591L478.417 533.46L472.945 531.103L473.964 527.961L479.811 529.27L480.402 523.353H483.781L484.371 529.27L490.273 527.961L491.292 531.103L485.766 533.46L488.878 538.591L486.142 540.529L482.118 535.973L478.041 540.529ZM501.564 540.529L498.828 538.591L501.94 533.46L496.468 531.103L497.487 527.961L503.335 529.27L503.925 523.353H507.304L507.895 529.27L513.796 527.961L514.815 531.103L509.289 533.46L512.401 538.591L509.665 540.529L505.641 535.973L501.564 540.529ZM525.087 540.529L522.351 538.591L525.463 533.46L519.991 531.103L521.01 527.961L526.857 529.27L527.448 523.353H530.827L531.417 529.27L537.319 527.961L538.338 531.103L532.812 533.46L535.924 538.591L533.188 540.529L529.164 535.973L525.087 540.529Z" fill="white"/>
<path d="M556.5 506.5H407.5V555.5H556.5V506.5Z" stroke="white"/>
<path d="M166.995 540.529L164.259 538.591L167.371 533.46L161.899 531.103L162.918 527.961L168.765 529.27L169.356 523.353H172.735L173.325 529.27L179.227 527.961L180.246 531.103L174.72 533.46L177.832 538.591L175.096 540.529L171.072 535.973L166.995 540.529ZM190.518 540.529L187.782 538.591L190.894 533.46L185.422 531.103L186.441 527.961L192.288 529.27L192.879 523.353H196.258L196.848 529.27L202.75 527.961L203.769 531.103L198.243 533.46L201.355 538.591L198.619 540.529L194.595 535.973L190.518 540.529ZM214.041 540.529L211.305 538.591L214.417 533.46L208.945 531.103L209.964 527.961L215.811 529.27L216.401 523.353H219.781L220.371 529.27L226.273 527.961L227.292 531.103L221.766 533.46L224.878 538.591L222.142 540.529L218.118 535.973L214.041 540.529ZM237.564 540.529L234.828 538.591L237.94 533.46L232.468 531.103L233.487 527.961L239.334 529.27L239.925 523.353H243.304L243.894 529.27L249.796 527.961L250.815 531.103L245.289 533.46L248.401 538.591L245.665 540.529L241.641 535.973L237.564 540.529ZM261.087 540.529L258.351 538.591L261.462 533.46L255.99 531.103L257.01 527.961L262.857 529.27L263.447 523.353H266.827L267.417 529.27L273.318 527.961L274.338 531.103L268.812 533.46L271.924 538.591L269.188 540.529L265.164 535.973L261.087 540.529Z" fill="white"/>
<path d="M292.5 506.5H143.5V555.5H292.5V506.5Z" stroke="white"/>
<path d="M560 305L482 506" stroke="white" stroke-width="2" stroke-linecap="round"/>
<path d="M482 506L140 305" stroke="white" stroke-width="2" stroke-linecap="round"/>
<path d="M350 150L482 506" stroke="white" stroke-width="2" stroke-linecap="round"/>
<path d="M407 532H293" stroke="white" stroke-width="2"/>
<path d="M214 279H485" stroke="white" stroke-width="2"/>
<path d="M140.367 304.86L218 506" stroke="white" stroke-width="2" stroke-linecap="round"/>
<path d="M350 150L140 255" stroke="white" stroke-width="2" stroke-linecap="round"/>
<path d="M218 506L350 150" stroke="white" stroke-width="2" stroke-linecap="round"/>
<path d="M560 305L218 506" stroke="white" stroke-width="2" stroke-linecap="round"/>
<path d="M350 150L560 255" stroke="white" stroke-width="2" stroke-linecap="round"/>
</svg>
