<svg width="50" height="50" viewBox="0 0 50 50" fill="none" xmlns="http://www.w3.org/2000/svg">
<path d="M48.0469 10.6934C46.3477 11.4453 44.5312 11.9531 42.6172 12.1875C44.5703 11.0156 46.0742 9.16016 46.7773 6.95312C44.9512 8.03711 42.9297 8.82812 40.7715 9.24805C39.043 7.40234 36.582 6.25 33.8672 6.25C28.6426 6.25 24.4141 10.4883 24.4141 15.7129C24.4141 16.4551 24.4922 17.1777 24.6582 17.8711C16.7969 17.4805 9.82422 13.7109 5.16602 7.97852C4.35547 9.375 3.88672 11.0059 3.88672 12.7344C3.88672 16.0156 5.55664 18.916 8.0957 20.6152C6.54297 20.5762 5.07812 20.1465 3.80859 19.4336V19.5508C3.80859 24.1406 7.07031 27.959 11.3965 28.8281C10.6055 29.043 9.76562 29.1602 8.90625 29.1602C8.30078 29.1602 7.70508 29.1016 7.12891 28.9844C8.33008 32.7441 11.8262 35.4785 15.9668 35.5566C12.7344 38.0957 8.65234 39.6094 4.21875 39.6094C3.45703 39.6094 2.70508 39.5605 1.96289 39.4727C6.14258 42.1875 11.1133 43.75 16.4453 43.75C33.8477 43.75 43.3594 29.3262 43.3594 16.8164C43.3594 16.4062 43.3496 15.9961 43.3301 15.5957C45.1758 14.2578 46.7773 12.5879 48.0469 10.6934Z" fill="white"/>
</svg>
